<svg width="71" height="59" viewBox="0 0 71 59" fill="none" xmlns="http://www.w3.org/2000/svg">
<path d="M52.8002 31.9566C58.6832 26.0736 58.6832 16.5353 52.8002 10.6522C46.9171 4.76916 37.3788 4.76916 31.4957 10.6522L15.5191 26.6289C9.63604 32.5119 9.63604 42.0502 15.5191 47.9333C21.4021 53.8163 30.9405 53.8163 36.8235 47.9333L52.8002 31.9566Z" stroke="#32413D" stroke-width="2" stroke-miterlimit="10"/>
<path d="M23.9699 18.0895L23.9665 18.0862C21.0259 15.1455 16.2583 15.1456 13.3177 18.0862L5.32432 26.0795C2.38371 29.0201 2.38371 33.7878 5.32432 36.7284L5.32766 36.7317C8.26827 39.6723 13.0359 39.6723 15.9765 36.7317L23.9699 28.7384C26.9105 25.7978 26.9105 21.0301 23.9699 18.0895Z" stroke="#32413D" stroke-width="2" stroke-miterlimit="10"/>
<path d="M65.4186 18.09L65.4153 18.0866C62.4747 15.146 57.707 15.146 54.7664 18.0866L46.773 26.08C43.8324 29.0206 43.8324 33.7882 46.773 36.7288L46.7764 36.7322C49.717 39.6728 54.4847 39.6728 57.4253 36.7322L65.4186 28.7389C68.3592 25.7982 68.3592 21.0306 65.4186 18.09Z" stroke="#32413D" stroke-width="2" stroke-miterlimit="10"/>
</svg>
